<svg xmlns="http://www.w3.org/2000/svg" xmlns:xlink="http://www.w3.org/1999/xlink" width="263pt" height="332pt" viewBox="0.00 0.00 262.54 332.00">
<g id="graph0" class="graph" transform="scale(1 1) rotate(0) translate(4 328)">
<polygon fill="white" stroke="transparent" points="-4,4 -4,-328 258.54,-328 258.54,4 -4,4"/>
<!-- 難波A -->
<g id="node1" class="node">
<title>難波A</title>
<ellipse fill="none" stroke="black" cx="88.1" cy="-306" rx="36" ry="18"/>
<text text-anchor="middle" x="88.1" y="-302.3" font-family="Times,serif" font-size="14.00">難波A</text>
</g>
<!-- 難波B -->
<g id="node2" class="node">
<title>難波B</title>
<ellipse fill="none" stroke="black" cx="35.1" cy="-234" rx="35.19" ry="18"/>
<text text-anchor="middle" x="35.1" y="-230.3" font-family="Times,serif" font-size="14.00">難波B</text>
</g>
<!-- 難波A&#45;&#45;難波B -->
<g id="edge1" class="edge">
<title>難波A--難波B</title>
<path fill="none" stroke="black" d="M70.92,-289.81C61.16,-278.71 49.69,-263.65 42.17,-252.13"/>
</g>
<!-- 難波A&#45;&#45;難波B -->
<g id="edge2" class="edge">
<title>難波A--難波B</title>
<path fill="none" stroke="black" d="M81.15,-288.05C73.56,-276.4 61.87,-261.07 52.01,-249.89"/>
</g>
<!-- 難波D -->
<g id="node3" class="node">
<title>難波D</title>
<ellipse fill="none" stroke="black" cx="142.1" cy="-234" rx="36" ry="18"/>
<text text-anchor="middle" x="142.1" y="-230.3" font-family="Times,serif" font-size="14.00">難波D</text>
</g>
<!-- 難波A&#45;&#45;難波D -->
<g id="edge3" class="edge">
<title>難波A--難波D</title>
<path fill="none" stroke="black" d="M95.29,-288.05C103.04,-276.4 114.95,-261.07 124.97,-249.89"/>
</g>
<!-- 難波A&#45;&#45;難波D -->
<g id="edge4" class="edge">
<title>難波A--難波D</title>
<path fill="none" stroke="black" d="M105.18,-290.15C115.26,-278.92 127.25,-263.48 135.01,-251.79"/>
</g>
<!-- 難波B&#45;&#45;難波B -->
<g id="edge5" class="edge">
<title>難波B--難波B</title>
<path fill="none" stroke="black" d="M60.23,-246.76C74.71,-249.36 88.19,-245.11 88.19,-234 88.19,-222.89 74.71,-218.64 60.23,-221.24"/>
</g>
<!-- 難波C -->
<g id="node4" class="node">
<title>難波C</title>
<ellipse fill="none" stroke="black" cx="47.1" cy="-90" rx="35.19" ry="18"/>
<text text-anchor="middle" x="47.1" y="-86.3" font-family="Times,serif" font-size="14.00">難波C</text>
</g>
<!-- 難波B&#45;&#45;難波C -->
<g id="edge6" class="edge">
<title>難波B--難波C</title>
<path fill="none" stroke="black" d="M36.54,-215.87C38.85,-188.58 43.33,-135.52 45.64,-108.19"/>
</g>
<!-- 難波F -->
<g id="node5" class="node">
<title>難波F</title>
<ellipse fill="none" stroke="black" cx="140.1" cy="-90" rx="34.39" ry="18"/>
<text text-anchor="middle" x="140.1" y="-86.3" font-family="Times,serif" font-size="14.00">難波F</text>
</g>
<!-- 難波B&#45;&#45;難波F -->
<g id="edge7" class="edge">
<title>難波B--難波F</title>
<path fill="none" stroke="black" d="M46.94,-216.99C67.1,-189.71 107.89,-134.55 128.14,-107.17"/>
</g>
<!-- 難波D&#45;&#45;難波F -->
<g id="edge10" class="edge">
<title>難波D--難波F</title>
<path fill="none" stroke="black" d="M132.81,-216.43C126.49,-189.07 125.73,-134.75 131.3,-107.46"/>
</g>
<!-- 難波D&#45;&#45;難波F -->
<g id="edge11" class="edge">
<title>難波D--難波F</title>
<path fill="none" stroke="black" d="M141.86,-215.87C141.47,-188.58 140.72,-135.52 140.34,-108.19"/>
</g>
<!-- 難波D&#45;&#45;難波F -->
<g id="edge12" class="edge">
<title>難波D--難波F</title>
<path fill="none" stroke="black" d="M150.91,-216.43C156.47,-189.07 155.7,-134.75 149.35,-107.46"/>
</g>
<!-- 難波E -->
<g id="node7" class="node">
<title>難波E</title>
<ellipse fill="none" stroke="black" cx="220.1" cy="-162" rx="34.39" ry="18"/>
<text text-anchor="middle" x="220.1" y="-158.3" font-family="Times,serif" font-size="14.00">難波E</text>
</g>
<!-- 難波D&#45;&#45;難波E -->
<g id="edge9" class="edge">
<title>難波D--難波E</title>
<path fill="none" stroke="black" d="M159.02,-217.81C172.19,-205.99 190.38,-189.67 203.47,-177.92"/>
</g>
<!-- 難波G -->
<g id="node6" class="node">
<title>難波G</title>
<ellipse fill="none" stroke="black" cx="140.1" cy="-18" rx="36" ry="18"/>
<text text-anchor="middle" x="140.1" y="-14.3" font-family="Times,serif" font-size="14.00">難波G</text>
</g>
<!-- 難波C&#45;&#45;難波G -->
<g id="edge8" class="edge">
<title>難波C--難波G</title>
<path fill="none" stroke="black" d="M66.37,-74.5C82.33,-62.48 104.9,-45.49 120.85,-33.49"/>
</g>
<!-- 難波F&#45;&#45;難波G -->
<g id="edge14" class="edge">
<title>難波F--難波G</title>
<path fill="none" stroke="black" d="M128.5,-72.76C125.96,-61.46 125.96,-46.44 128.52,-35.15"/>
</g>
<!-- 難波F&#45;&#45;難波G -->
<g id="edge15" class="edge">
<title>難波F--難波G</title>
<path fill="none" stroke="black" d="M140.1,-71.7C140.1,-60.85 140.1,-46.92 140.1,-36.1"/>
</g>
<!-- 難波F&#45;&#45;難波G -->
<g id="edge16" class="edge">
<title>難波F--難波G</title>
<path fill="none" stroke="black" d="M151.7,-72.76C154.24,-61.46 154.23,-46.44 151.68,-35.15"/>
</g>
<!-- 難波E&#45;&#45;難波F -->
<g id="edge13" class="edge">
<title>難波E--難波F</title>
<path fill="none" stroke="black" d="M203.13,-146.15C189.55,-134.28 170.61,-117.7 157.04,-105.82"/>
</g>
</g>
</svg>